<svg width="82" height="82" viewBox="0 0 82 82" fill="none" xmlns="http://www.w3.org/2000/svg">
<rect width="82" height="82" rx="19" fill="#388936"/>
<path d="M68.8188 47.7286L42.7102 30.0399C42.2129 29.704 41.6423 29.5341 41.0699 29.5341V36.1607L64.219 51.8435V62.2987L42.7102 47.7286C42.2129 47.3908 41.6405 47.2229 41.0699 47.2229V53.8495L65.5383 70.4255C66.4466 71.0401 67.6158 71.0973 68.5767 70.5744C69.5394 70.0495 70.1399 69.0303 70.1399 67.9214V50.2346C70.1399 49.2288 69.6445 48.2878 68.8206 47.7305L68.8188 47.7286Z" fill="white"/>
<path d="M41.0681 18.6171L65.5458 35.0557C66.9102 35.9718 68.7456 35.5901 69.6464 34.2025C70.5472 32.815 70.1719 30.9484 68.8075 30.0323L42.699 12.4981C42.2054 12.166 41.6368 12 41.0681 12V18.6171Z" fill="white"/>
<path d="M39.4373 12.4981L13.3287 30.0342C12.4992 30.5915 12 31.5343 12 32.5459V50.2346C12 51.3435 12.6005 52.3646 13.5633 52.8876C14.526 53.4105 15.6933 53.3552 16.6017 52.7387L41.07 36.1626V29.5361C40.4976 29.5361 39.9252 29.704 39.4298 30.0418L17.9191 44.6119V34.1644L41.0681 18.6171V12C40.4995 12 39.9308 12.166 39.4373 12.4981Z" fill="white"/>
<path d="M39.4279 47.7287L13.3193 65.4155C11.9587 66.3373 11.5909 68.2059 12.4973 69.5896C13.0678 70.4599 14.0062 70.9313 14.9633 70.9313C15.5263 70.9313 16.0968 70.7672 16.6016 70.4255L41.07 53.8495V47.2229C40.4976 47.2229 39.9252 47.3909 39.4298 47.7287H39.4279Z" fill="white"/>
</svg>
