<svg width="26" height="26" viewBox="0 0 26 26" fill="none" xmlns="http://www.w3.org/2000/svg">
<g clip-path="url(#clip0_33_108)">
<path d="M0.654663 7.99775C0.698166 7.54639 0.745294 7.09503 0.783359 6.64277C0.877615 5.52253 0.968246 4.40229 1.05978 3.28205C1.07972 3.04368 1.09513 2.80531 1.12051 2.56695C1.20479 1.77299 1.81202 1.15849 2.60685 1.08779C3.79774 0.981752 4.99044 0.892931 6.18224 0.79414C6.84113 0.739759 7.50001 0.676315 8.1589 0.621028C8.62474 0.582055 9.08243 0.579336 9.50296 0.840363C10.0839 1.20109 10.4038 1.89716 10.2724 2.54338C10.1265 3.26211 9.59721 3.79957 8.89029 3.88295C8.10724 3.9754 7.31966 4.02797 6.51939 4.09957C6.54023 4.19474 6.62089 4.24096 6.67799 4.29806C8.12174 5.74368 9.56821 7.18748 11.0111 8.634C11.6165 9.24125 11.7379 10.0325 11.34 10.7086C10.8253 11.5841 9.667 11.798 8.87579 11.1609C8.77066 11.0757 8.67368 10.9796 8.57761 10.8844C7.16559 9.47418 5.75537 8.06301 4.34334 6.65183C4.28352 6.59201 4.22008 6.53491 4.12945 6.44881C4.07417 7.13944 4.01707 7.78748 3.97175 8.43733C3.93459 8.96935 3.8204 9.46512 3.39534 9.834C2.49628 10.6153 1.16945 10.2881 0.734418 9.17781C0.706323 9.10711 0.680946 9.03098 0.654663 8.95575C0.654663 8.63672 0.654663 8.31678 0.654663 7.99775Z" fill="#388936"/>
<path d="M0.654663 16.8122C0.862208 16.1469 1.2628 15.682 1.97516 15.5406C2.90593 15.3557 3.79956 15.9765 3.91919 16.9245C4.01073 17.6514 4.05241 18.3838 4.11586 19.1143C4.12039 19.1677 4.12583 19.2203 4.13036 19.2792C4.23911 19.2548 4.28352 19.1723 4.34243 19.1134C5.788 17.6705 7.22993 16.2239 8.67731 14.7829C9.2791 14.1829 10.0404 14.0678 10.7301 14.4566C11.6029 14.9478 11.8376 16.1016 11.2231 16.8937C11.1352 17.007 11.0346 17.1103 10.934 17.2119C9.51927 18.6285 8.10271 20.0451 6.68615 21.4599C6.62996 21.5161 6.56561 21.5632 6.45232 21.6593C6.73056 21.6883 6.93629 21.7128 7.14293 21.7309C7.69034 21.778 8.24047 21.8052 8.78516 21.8723C9.63256 21.9765 10.2362 22.5847 10.2933 23.3541C10.3549 24.1898 9.88542 24.8587 9.05524 25.1188C9.03258 25.126 9.01174 25.1378 8.98999 25.1469H8.03202C7.17556 25.0717 6.31909 24.9946 5.46263 24.9212C4.49379 24.8378 3.52404 24.7717 2.55701 24.6729C1.8519 24.6013 1.30902 24.0847 1.15495 23.3859C1.0915 23.0967 1.08516 22.8013 1.0625 22.5067C0.973684 21.3629 0.879428 20.2191 0.783359 19.0762C0.7462 18.6403 0.699072 18.2052 0.656476 17.7693C0.656476 17.4502 0.656476 17.1303 0.656476 16.8113L0.654663 16.8122Z" fill="#388936"/>
<path d="M16.8449 25.1468C16.4099 25.0036 16.032 24.7888 15.7836 24.3809C15.1619 23.3577 15.7691 22.038 16.9573 21.8822C17.676 21.7879 18.402 21.7507 19.1243 21.6855C19.185 21.68 19.2512 21.7036 19.3083 21.6538C19.2847 21.5613 19.204 21.5169 19.1442 21.4571C17.7005 20.0106 16.254 18.5677 14.8121 17.1202C14.2221 16.5284 14.0997 15.7535 14.4758 15.0864C14.9861 14.1819 16.1625 13.9571 16.9682 14.6133C17.067 14.694 17.1576 14.7837 17.2482 14.8743C18.6593 16.2846 20.0705 17.6958 21.4816 19.1069C21.5423 19.1677 21.6067 19.2266 21.6991 19.3154C21.7381 18.8631 21.7743 18.4471 21.8115 18.0311C21.8432 17.6659 21.8641 17.2988 21.9103 16.9353C22.0208 16.068 22.7785 15.4562 23.6604 15.5069C24.5123 15.5568 25.2101 16.2755 25.1875 17.1384C25.1666 17.8943 25.0914 18.6492 25.0334 19.4042C24.9627 20.3178 24.8848 21.2314 24.8087 22.145C24.7778 22.5184 24.7552 22.8927 24.7053 23.2643C24.6047 24.013 24.0102 24.6012 23.2561 24.6755C22.2728 24.7725 21.2867 24.8396 20.3016 24.9238C19.4524 24.9963 18.6041 25.0734 17.7548 25.1486H16.8449V25.1468Z" fill="#388936"/>
<path d="M21.6991 6.4209C21.4734 6.65746 21.3003 6.84507 21.1209 7.02543C19.8013 8.34688 18.4826 9.66923 17.1585 10.9871C16.5748 11.568 15.8289 11.6994 15.1673 11.3514C14.223 10.8556 13.9783 9.64023 14.6589 8.81818C14.7405 8.72029 14.8311 8.62966 14.9208 8.53902C16.3256 7.13329 17.7304 5.72755 19.137 4.32453C19.1986 4.2629 19.2775 4.2194 19.3481 4.16683C19.3364 4.14417 19.3246 4.12151 19.3128 4.09885C18.8823 4.06169 18.4527 4.02544 18.0222 3.98737C17.6651 3.95565 17.3062 3.93571 16.951 3.88858C16.0909 3.77257 15.4755 2.99312 15.5407 2.12303C15.6042 1.27832 16.3165 0.60581 17.1667 0.608529C17.9325 0.611248 18.6929 0.718196 19.456 0.772577C20.346 0.836021 21.2351 0.916685 22.1242 0.991912C22.561 1.02907 23.0015 1.03088 23.4311 1.12514C24.1362 1.28013 24.6464 1.84478 24.7108 2.56079C24.8168 3.73541 24.9056 4.91184 25.0035 6.08737C25.0597 6.76259 25.1213 7.43691 25.1775 8.11214C25.2174 8.5934 25.2265 9.06923 24.9428 9.49884C24.554 10.088 23.8743 10.3762 23.2027 10.2266C22.5075 10.0716 21.9937 9.53419 21.913 8.82452C21.8305 8.10398 21.7834 7.37981 21.72 6.65746C21.7154 6.60398 21.7109 6.55051 21.6991 6.4209Z" fill="#388936"/>
</g>
<defs>
<clipPath id="clip0_33_108">
<rect width="24.5438" height="24.5438" fill="white" transform="translate(0.654663 0.603027)"/>
</clipPath>
</defs>
</svg>
