<svg width="27" height="26" viewBox="0 0 27 26" fill="none" xmlns="http://www.w3.org/2000/svg">
<g clip-path="url(#clip0_33_95)">
<path d="M6.04392 0.603027C6.85596 0.750356 7.59424 1.04738 8.22231 1.5839C8.97357 2.22679 9.44766 3.02094 9.60812 3.98134C9.64945 4.22636 9.7394 4.35005 10.0004 4.43278C11.4194 4.88421 12.3595 6.09751 12.4575 7.53376C12.4802 7.86229 12.4786 8.19004 12.4843 8.51858C12.4875 8.68481 12.4138 8.75099 12.2403 8.75099C10.0174 8.74784 7.79522 8.74942 5.57226 8.74863C5.45313 8.74863 5.31779 8.75493 5.32023 8.58397C5.32833 8.05138 5.26025 7.51406 5.3964 6.98857C5.72462 5.72091 6.52288 4.86058 7.79117 4.42884C8.01809 4.35163 8.07077 4.26733 8.01404 4.04121C7.75876 3.02094 6.813 2.25279 5.71895 2.13382C4.36394 1.98571 3.14994 2.94216 2.89142 4.12866C2.8355 4.3855 2.81605 4.64786 2.81605 4.91179C2.81605 7.54873 2.81605 10.1865 2.81605 12.8234C2.81605 13.054 2.93842 13.1695 3.18317 13.1701C10.7046 13.1701 18.226 13.1701 25.7467 13.1701C26.3285 13.1701 26.2426 13.1527 26.2451 13.6664C26.2491 14.3896 26.2467 15.1121 26.2459 15.8354C26.2459 16.0764 26.1192 16.1972 25.8658 16.1978C19.5527 16.1978 13.2404 16.1978 6.92727 16.1978C4.82263 16.1978 2.7188 16.1978 0.61416 16.1978C0.49584 16.1978 0.37833 16.1891 0.26001 16.1852C0.26001 15.1822 0.26001 14.1801 0.26001 13.1771C0.470717 13.1748 0.682235 13.1716 0.892942 13.1708C1.13499 13.1698 1.25628 13.0535 1.25682 12.8218C1.25682 10.0801 1.24709 7.33837 1.26249 4.59665C1.26978 3.29039 1.85652 2.24491 2.89709 1.43264C3.47978 0.978045 4.15728 0.741689 4.87774 0.603027H6.04392Z" fill="#388936"/>
<path d="M13.2574 17.6096C17.1117 17.6096 20.9653 17.6096 24.8196 17.6096C25.0951 17.6096 25.2332 17.7454 25.2337 18.0169C25.2337 18.5921 25.2369 19.1672 25.2321 19.7423C25.2151 21.8995 23.6737 23.7919 21.5107 24.2827C21.2262 24.3473 21.1379 24.4584 21.1557 24.7263C21.176 25.0288 21.1565 25.3337 21.1606 25.6378C21.163 25.8049 21.0909 25.871 20.9166 25.8679C20.5536 25.86 20.1897 25.8569 19.8266 25.8687C19.6192 25.8758 19.5641 25.7875 19.5697 25.604C19.5786 25.2998 19.5608 24.9957 19.5754 24.6924C19.5859 24.4821 19.5 24.4253 19.295 24.4285C18.7034 24.4387 18.1118 24.4316 17.5202 24.4316C14.114 24.4316 10.7079 24.4316 7.30251 24.4316C7.04912 24.4316 6.92216 24.5585 6.92162 24.8122C6.92162 25.0918 6.91675 25.3707 6.92162 25.6504C6.92486 25.8088 6.85597 25.8695 6.6947 25.8671C6.32272 25.8616 5.95074 25.8584 5.57957 25.8687C5.38426 25.8742 5.32915 25.7867 5.33159 25.6166C5.33645 25.2959 5.32348 24.9752 5.33564 24.6554C5.34374 24.4505 5.27972 24.3599 5.05848 24.304C3.04784 23.7943 1.80872 22.5447 1.33949 20.5782C1.23171 20.1268 1.26007 19.6635 1.25926 19.2042C1.25926 18.752 1.26413 18.3006 1.25683 17.8483C1.2544 17.6805 1.31923 17.6033 1.49266 17.6112C1.57694 17.6151 1.66204 17.6112 1.74632 17.6112C5.58362 17.6112 9.42012 17.6112 13.2574 17.6112V17.6096Z" fill="#388936"/>
</g>
<defs>
<clipPath id="clip0_33_95">
<rect width="25.9875" height="25.2656" fill="white" transform="translate(0.262451 0.603027)"/>
</clipPath>
</defs>
</svg>
