<svg width="30" height="26" viewBox="0 0 30 26" fill="none" xmlns="http://www.w3.org/2000/svg">
<g clip-path="url(#clip0_33_100)">
<path d="M15.0549 0.604252C18.3348 0.604252 21.6147 0.604252 24.8946 0.604252C25.5967 0.604252 26.2455 0.753799 26.7668 1.24067C27.2245 1.66795 27.4735 2.1953 27.4747 2.81598C27.4782 5.91487 27.4747 9.01488 27.4817 12.1138C27.4817 12.423 27.4168 12.4747 27.0634 12.4668C26.2362 12.4455 25.8481 12.179 25.6789 11.3177C25.4727 10.2686 24.3605 9.56472 23.2541 9.55798C21.2741 9.54448 19.2952 9.54561 17.3153 9.55798C16.5054 9.5636 15.8253 9.89193 15.319 10.5047C15.0989 10.7712 14.9842 10.7487 14.7722 10.498C14.2161 9.83908 13.4792 9.54561 12.5999 9.54898C10.7358 9.55798 8.87163 9.54786 7.0075 9.55235C5.50137 9.55685 4.40769 10.5081 4.23738 11.9721C4.20725 12.2341 4.11341 12.3375 3.84115 12.3488C3.55498 12.3611 3.26534 12.4072 2.98613 12.4713C2.71618 12.5332 2.61307 12.459 2.6177 12.1891C2.62813 11.6708 2.62002 11.1513 2.62002 10.6329C2.62002 8.12322 2.62002 5.6124 2.62002 3.1027C2.62234 1.53639 3.55846 0.609874 5.17118 0.606501C8.46614 0.599754 11.7599 0.604252 15.0549 0.604252Z" fill="#388936"/>
<path d="M15.0271 18.7343C10.547 18.7343 6.06563 18.7343 1.58546 18.7343C0.979533 18.7343 0.970265 18.732 0.979533 18.1597C0.986485 17.6841 0.934349 17.2073 1.03862 16.7339C1.32363 15.4364 2.33274 14.5638 3.69058 14.4649C4.07869 14.4367 4.46913 14.4188 4.85841 14.4188C11.6233 14.4165 18.387 14.4154 25.1518 14.4188C25.5851 14.4188 26.0184 14.4379 26.4506 14.4671C27.8768 14.5638 29.0133 15.6691 29.1095 17.0634C29.1396 17.4963 29.1106 17.9326 29.1211 18.3677C29.128 18.6387 29.0052 18.7534 28.7306 18.7343C28.6009 18.7253 28.4711 18.7343 28.3402 18.7343C23.9029 18.7343 19.4656 18.7343 15.0283 18.7343H15.0271Z" fill="#388936"/>
<path d="M15.048 19.7655C19.498 19.7655 23.9481 19.7655 28.3981 19.7655C28.8793 19.7655 29.1199 20.0053 29.1199 20.4851C29.1199 21.9851 29.1222 23.4862 29.1199 24.9861C29.1188 25.6327 28.9068 25.8497 28.2429 25.8598C27.4342 25.8722 26.6244 25.871 25.8157 25.8598C25.1495 25.8508 24.9317 25.6327 24.9248 24.9951C24.919 24.4621 24.9143 23.9292 24.9248 23.3962C24.9306 23.1128 24.8193 22.9734 24.5204 22.9925C24.4347 22.9982 24.3466 22.9925 24.2609 22.9925C18.1205 22.9925 11.9801 22.9925 5.83857 22.9925C5.39754 22.9925 5.17664 23.211 5.17587 23.6481C5.17587 24.1383 5.18514 24.6297 5.17008 25.1199C5.15502 25.5967 4.94532 25.8351 4.4564 25.8474C3.53303 25.871 2.60733 25.8722 1.6828 25.8452C1.19388 25.8317 0.983024 25.5911 0.980707 25.1121C0.972597 23.4715 0.987659 21.831 0.97028 20.1905C0.965646 19.7666 1.20779 19.7621 1.52407 19.7621C6.03205 19.7655 10.54 19.7643 15.048 19.7643V19.7655Z" fill="#388936"/>
<path d="M9.78698 13.4305C8.44421 13.4305 7.10027 13.4193 5.75749 13.4373C5.37169 13.4418 5.24425 13.3316 5.21992 12.9414C5.10638 11.1367 5.94171 10.443 7.66102 10.5116C9.24709 10.5756 10.8378 10.5239 12.4262 10.525C13.718 10.5262 14.383 11.166 14.3876 12.4039C14.39 13.0876 14.0408 13.4294 13.3403 13.4294C12.1562 13.4294 10.9722 13.4294 9.78814 13.4294L9.78698 13.4305Z" fill="#388936"/>
<path d="M20.2905 13.4305C18.9327 13.4305 17.5749 13.4181 16.2182 13.4384C15.8185 13.444 15.6667 13.3158 15.7049 12.9324C15.7281 12.6963 15.7061 12.4568 15.7107 12.2184C15.7269 11.2536 16.4279 10.5419 17.43 10.5318C19.322 10.5149 21.2139 10.5138 23.1058 10.5318C24.13 10.5419 24.8275 11.2458 24.8634 12.2442C24.8727 12.4961 24.853 12.7491 24.8692 13.001C24.89 13.3327 24.7394 13.4384 24.4069 13.435C23.0352 13.4226 21.6634 13.4305 20.2917 13.4305H20.2905Z" fill="#388936"/>
</g>
<defs>
<clipPath id="clip0_33_100">
<rect width="28.1531" height="25.2656" fill="white" transform="translate(0.970215 0.603027)"/>
</clipPath>
</defs>
</svg>
