<svg width="33" height="24" viewBox="0 0 33 24" fill="none" xmlns="http://www.w3.org/2000/svg">
<g clip-path="url(#clip0_33_91)">
<path d="M32.7611 8.08325C32.6228 8.71242 32.4845 9.34159 32.3454 9.96996C32.1983 10.6344 31.9497 10.8345 31.2709 10.8377C31.1126 10.8377 30.9543 10.8361 30.7952 10.8393C30.7353 10.8409 30.6569 10.8161 30.6233 10.8857C30.5906 10.9545 30.6585 10.9994 30.6961 11.0466C31.1254 11.5925 31.4604 12.1913 31.6443 12.8629C32.2151 14.9521 31.8649 16.8404 30.3803 18.4646C30.1964 18.6655 30.1117 18.8672 30.1165 19.1426C30.1317 20.0199 30.1261 20.8988 30.1205 21.7761C30.1157 22.527 29.6911 23.0305 28.942 23.0873C27.8891 23.1665 26.8314 23.1681 25.7777 23.0817C25.2053 23.0345 24.7895 22.6102 24.688 22.0491C24.6233 21.6921 24.6336 21.3311 24.6488 20.9732C24.6608 20.6803 24.5529 20.5914 24.2643 20.593C22.3943 20.6034 20.5243 20.5978 18.6544 20.5978C15.3901 20.5978 12.125 20.5978 8.86075 20.5978C8.42024 20.5978 8.42184 20.5994 8.41784 21.0357C8.41465 21.3735 8.43463 21.7121 8.37387 22.0483C8.27154 22.6102 7.85661 23.0361 7.28418 23.0809C6.20969 23.1649 5.13119 23.1673 4.05749 23.0809C3.39473 23.0281 2.95022 22.5125 2.94382 21.8394C2.93423 20.8876 2.93663 19.935 2.94302 18.9833C2.94382 18.7912 2.89186 18.6447 2.75674 18.5022C0.784433 16.413 0.609347 13.3672 2.31943 11.0314C2.34901 10.9906 2.3722 10.9449 2.41537 10.8729C2.16433 10.8089 1.93328 10.8457 1.70703 10.8393C1.15139 10.8249 0.853987 10.6047 0.736464 10.074C0.581365 9.37281 0.431064 8.6692 0.299949 7.96318C0.178429 7.3092 0.555782 6.86093 1.21695 6.85693C2.12516 6.85133 3.03416 6.84813 3.94237 6.86013C4.17822 6.86334 4.30213 6.78809 4.39088 6.56476C4.75944 5.63061 5.18476 4.72368 5.66364 3.83755C6.42075 2.43833 7.61357 1.62665 9.07502 1.13116C10.8067 0.544415 12.5911 0.253043 14.4099 0.120965C15.5276 0.0393171 16.6461 0.0257091 17.7629 0.0721364C20.0614 0.166592 22.316 0.492384 24.4865 1.32007C25.9128 1.86359 26.889 2.84257 27.5837 4.16415C27.9931 4.9422 28.356 5.74027 28.6702 6.55996C28.755 6.78009 28.8733 6.86494 29.1139 6.86173C30.0013 6.84813 30.8888 6.86574 31.7762 6.85293C32.2391 6.84653 32.5717 7.01943 32.7611 7.44848V8.08325ZM16.5134 8.14089C19.4594 8.14089 22.4063 8.14089 25.3524 8.14089C25.6482 8.14089 25.944 8.13288 26.239 8.14329C26.4692 8.15129 26.51 8.07605 26.4285 7.86232C26.1023 7.00182 25.7305 6.16292 25.3244 5.33684C24.9199 4.51475 24.2899 3.98244 23.4384 3.65505C21.7315 2.99786 19.9503 2.75852 18.1443 2.64565C16.7844 2.5608 15.4229 2.58482 14.0654 2.70649C12.707 2.82816 11.3727 3.0707 10.0656 3.47974C8.86155 3.85676 8.00132 4.57159 7.52003 5.75788C7.25061 6.42308 6.92842 7.06665 6.68058 7.74225C6.53428 8.14169 6.52788 8.14089 6.94521 8.14089C10.1343 8.14089 13.3234 8.14089 16.5134 8.14089ZM4.93612 14.7904C4.93052 16.1328 5.97544 17.2006 7.30417 17.2102C8.66408 17.2198 9.72899 16.1728 9.73458 14.8208C9.74018 13.4744 8.70486 12.4194 7.36493 12.4066C6.00422 12.393 4.94252 13.436 4.93612 14.7904ZM25.7729 12.4066C24.4274 12.401 23.3417 13.472 23.3409 14.8072C23.3401 16.1208 24.425 17.2062 25.7449 17.211C27.0888 17.2158 28.1673 16.1472 28.1745 14.8024C28.1817 13.4864 27.1048 12.4122 25.7729 12.4066Z" fill="#388936"/>
</g>
<defs>
<clipPath id="clip0_33_91">
<rect width="32.4844" height="23.1" fill="white" transform="translate(0.276489 0.046875)"/>
</clipPath>
</defs>
</svg>
