<svg width="189" height="59" viewBox="0 0 189 59" fill="none" xmlns="http://www.w3.org/2000/svg">
<path d="M76.085 41.9098C76.085 43.9157 76.9726 44.9196 78.748 44.9196C80.5234 44.9196 81.411 43.8279 81.411 41.6426V38.9C81.411 37.251 80.8405 36.0695 79.7014 35.3557L73.9136 31.8115C72.204 30.7408 71.3482 28.9353 71.3482 26.393V21.7113C71.3482 19.7493 71.9731 18.1556 73.223 16.9284C74.4729 15.7031 76.3139 15.0885 78.748 15.0885C81.1821 15.0885 83.0325 15.6019 84.3049 16.6268C85.5754 17.6536 86.2116 19.0584 86.2116 20.841V25.0551C86.2116 25.8128 85.6861 26.3262 84.6333 26.5934C84.1078 26.7728 83.5486 26.8606 82.9556 26.8606C82.3625 26.8606 81.7826 26.7938 81.2121 26.6602C81.3435 25.6792 81.4092 24.6314 81.4092 23.5168V22.5129C81.4092 20.4173 80.5759 19.3695 78.9094 19.3695C77.1547 19.3695 76.2783 20.3066 76.2783 22.1789V25.2555C76.2783 26.8167 76.7606 27.8645 77.7252 28.399L83.5129 31.8096C85.3971 32.8803 86.3411 34.7087 86.3411 37.2949V42.3106C86.3411 44.4501 85.7162 46.1335 84.4663 47.3607C83.2164 48.586 81.3848 49.2006 78.9751 49.2006C76.5654 49.2006 74.6775 48.7101 73.3187 47.7291C71.9581 46.7481 71.2806 45.3433 71.2806 43.5149V39.1004C71.2806 38.3427 71.808 37.8293 72.8589 37.5621C73.3863 37.3846 73.9437 37.2949 74.5367 37.2949C75.1297 37.2949 75.7096 37.3617 76.2802 37.4953C76.1488 38.4763 76.0831 39.5241 76.0831 40.6387V41.9098H76.085Z" fill="white"/>
<path d="M98.7723 15.0904C103.682 15.0904 106.138 17.2986 106.138 21.7113V42.9805C106.138 43.9176 106.304 44.5856 106.632 44.9864C106.96 45.3872 107.585 45.5895 108.507 45.5895C108.55 46.75 108.253 47.6413 107.619 48.2654C106.983 48.8895 106.075 49.2006 104.89 49.2006C103.049 49.2006 101.931 48.5097 101.537 47.1279C100.178 48.5097 98.5772 49.2006 96.7361 49.2006C94.8951 49.2006 93.4256 48.4887 92.3297 47.0611C91.2337 45.6353 90.6857 43.7172 90.6857 41.3086C90.6857 37.6537 92.1983 34.8881 95.2235 33.0158L101.208 29.4048V22.1808C101.208 20.3085 100.341 19.3713 98.611 19.3713C96.8806 19.3713 96.0136 20.4192 96.0136 22.5148V24.723L96.2107 27.8664C95.6401 28 95.0602 28.0668 94.4672 28.0668C93.8742 28.0668 93.3168 27.979 92.7894 27.7996C91.7366 27.5324 91.2111 27.019 91.2111 26.2613V20.7761C91.2111 18.9934 91.9018 17.6002 93.283 16.5963C94.6643 15.5924 96.494 15.0923 98.7742 15.0923L98.7723 15.0904ZM98.0479 36.2928C96.601 37.2738 95.8785 38.9133 95.8785 41.2093C95.8785 43.5054 96.5691 44.6543 97.9504 44.6543C99.3316 44.6543 100.416 43.8527 101.206 42.2457V34.1533L98.0498 36.2928H98.0479Z" fill="white"/>
<path d="M117.911 43.0473C117.911 45.2326 118.063 47.0611 118.371 48.5326C117.055 48.7101 115.631 48.7998 114.096 48.7998C113.35 48.7998 112.977 48.4658 112.977 47.7959V21.3086C112.977 20.3734 112.812 19.7035 112.483 19.3027C112.155 18.9018 111.53 18.7014 110.609 18.7014C110.565 17.5429 110.86 16.6516 111.496 16.0256C112.131 15.4015 113.152 15.0885 114.553 15.0885C115.955 15.0885 116.965 15.7794 117.579 17.1612C119.026 15.7794 120.593 15.0885 122.282 15.0885C123.971 15.0885 125.329 15.6458 126.36 16.7604C127.39 17.875 127.904 19.4592 127.904 21.509V42.9786C127.904 43.9157 128.069 44.5837 128.398 44.9845C128.726 45.3853 129.351 45.5876 130.273 45.5876C130.316 46.7481 130.019 47.6394 129.385 48.2635C128.749 48.8876 127.816 49.1987 126.591 49.1987C125.365 49.1987 124.453 48.8189 123.862 48.0612C123.271 47.3035 122.974 46.0552 122.974 44.3146V21.9098C122.974 20.4383 122.229 19.7015 120.739 19.7015C119.512 19.7015 118.568 20.3925 117.911 21.7743V43.0435V43.0473Z" fill="white"/>
<path d="M147.504 47.6947C146.101 48.6986 144.314 49.1987 142.145 49.1987C139.975 49.1987 138.243 48.6299 136.95 47.4924C135.655 46.3549 135.009 44.828 135.009 42.9118V19.7721L132.971 20.1061C132.664 18.9476 132.512 17.9323 132.512 17.0619C132.512 16.1916 132.797 15.7584 133.367 15.7584H135.143L136.064 9.47152C136.239 8.49051 137.051 8 138.498 8C138.936 8 139.418 8.0439 139.945 8.1336V15.7584H145.667L149.087 15.4244C149.304 16.5848 149.415 17.5983 149.415 18.4667C149.415 19.3351 149.13 19.7702 148.559 19.7702H139.943V42.1083C139.943 43.0454 140.174 43.7706 140.634 44.2821C141.094 44.7956 141.675 45.0513 142.377 45.0513C143.999 45.0513 144.81 43.9596 144.81 41.7743V36.8921L144.613 33.7487C145.181 33.6151 145.763 33.5483 146.356 33.5483C146.949 33.5483 147.506 33.638 148.034 33.8155C149.087 34.0827 149.612 34.5961 149.612 35.3538V43.3794C149.612 45.2517 148.91 46.6908 147.506 47.6928L147.504 47.6947Z" fill="white"/>
<path d="M153.949 42.3774V22.1789C153.949 19.9496 154.628 18.2109 155.987 16.9627C157.346 15.7145 159.187 15.0904 161.512 15.0904C163.837 15.0904 165.645 15.6706 166.938 16.8291C168.231 17.9895 168.878 19.6843 168.878 21.9117V42.1102C168.878 44.3413 168.187 46.08 166.806 47.3263C165.425 48.5746 163.573 49.1987 161.249 49.1987C158.926 49.1987 157.128 48.6185 155.856 47.4599C154.583 46.3014 153.949 44.6066 153.949 42.3774ZM158.881 21.9117V42.3774C158.881 43.1351 159.121 43.7707 159.605 44.2841C160.088 44.7975 160.69 45.0532 161.414 45.0532C162.139 45.0532 162.739 44.7975 163.224 44.2841C163.706 43.7726 163.948 43.137 163.948 42.3774V21.9117C163.948 21.154 163.706 20.5184 163.224 20.005C162.741 19.4935 162.139 19.2358 161.414 19.2358C160.69 19.2358 160.088 19.4935 159.605 20.005C159.123 20.5184 158.881 21.154 158.881 21.9117Z" fill="white"/>
<path d="M178.742 41.9098C178.742 43.9157 179.63 44.9196 181.405 44.9196C183.18 44.9196 184.068 43.8279 184.068 41.6426V38.9C184.068 37.251 183.498 36.0695 182.358 35.3557L176.571 31.8115C174.861 30.7408 174.005 28.9353 174.005 26.393V21.7113C174.005 19.7493 174.63 18.1556 175.88 16.9284C177.13 15.7031 178.971 15.0885 181.405 15.0885C183.839 15.0885 185.69 15.6019 186.962 16.6268C188.233 17.6536 188.869 19.0584 188.869 20.841V25.0551C188.869 25.8128 188.343 26.3262 187.29 26.5934C186.765 26.7728 186.206 26.8606 185.613 26.8606C185.02 26.8606 184.44 26.7938 183.869 26.6602C184.001 25.6792 184.066 24.6314 184.066 23.5168V22.5129C184.066 20.4173 183.233 19.3695 181.566 19.3695C179.812 19.3695 178.935 20.3066 178.935 22.1789V25.2555C178.935 26.8167 179.418 27.8645 180.382 28.399L186.17 31.8096C188.054 32.8803 188.998 34.7087 188.998 37.2949V42.3106C188.998 44.4501 188.373 46.1335 187.123 47.3607C185.874 48.586 184.042 49.2006 181.632 49.2006C179.223 49.2006 177.335 48.7101 175.976 47.7291C174.615 46.7481 173.938 45.3433 173.938 43.5149V39.1004C173.938 38.3427 174.465 37.8293 175.516 37.5621C176.043 37.3846 176.601 37.2949 177.194 37.2949C177.787 37.2949 178.367 37.3617 178.937 37.4953C178.806 38.4763 178.74 39.5241 178.74 40.6387V41.9098H178.742Z" fill="white"/>
<path d="M56.8188 35.7286L30.7102 18.0399C30.2129 17.704 29.6423 17.5341 29.0699 17.5341V24.1607L52.219 39.8435V50.2987L30.7102 35.7286C30.2129 35.3908 29.6405 35.2229 29.0699 35.2229V41.8495L53.5383 58.4255C54.4466 59.0401 55.6158 59.0973 56.5767 58.5744C57.5394 58.0495 58.1399 57.0303 58.1399 55.9214V38.2346C58.1399 37.2288 57.6445 36.2878 56.8206 35.7305L56.8188 35.7286Z" fill="white"/>
<path d="M29.0681 6.61705L53.5458 23.0557C54.9102 23.9718 56.7456 23.5901 57.6464 22.2025C58.5472 20.815 58.1719 18.9484 56.8075 18.0323L30.699 0.49814C30.2054 0.166047 29.6368 0 29.0681 0V6.61705Z" fill="white"/>
<path d="M27.4373 0.49814L1.3287 18.0342C0.499201 18.5915 0 19.5343 0 20.5459V38.2346C0 39.3435 0.600542 40.3646 1.56329 40.8876C2.52603 41.4105 3.69333 41.3552 4.60165 40.7387L29.07 24.1626V17.5361C28.4976 17.5361 27.9252 17.704 27.4298 18.0418L5.91909 32.6119V22.1644L29.0681 6.61705V0C28.4995 0 27.9308 0.166047 27.4373 0.49814Z" fill="white"/>
<path d="M27.4279 35.7287L1.3193 53.4155C-0.0412983 54.3373 -0.40913 56.2059 0.497313 57.5896C1.06783 58.4599 2.00617 58.9313 2.96329 58.9313C3.5263 58.9313 4.09681 58.7672 4.60164 58.4255L29.07 41.8495V35.2229C28.4976 35.2229 27.9252 35.3909 27.4298 35.7287H27.4279Z" fill="white"/>
</svg>
