<svg width="189" height="59" viewBox="0 0 189 59" fill="none" xmlns="http://www.w3.org/2000/svg">
<g clip-path="url(#clip0_35_842)">
<path d="M75.4487 54.74C75.3211 54.5358 75.1372 54.366 74.8932 54.2324C74.6511 54.0988 74.3865 54.032 74.1013 54.032C73.7954 54.032 73.5176 54.0873 73.2699 54.198C73.0222 54.3087 72.812 54.4614 72.6356 54.6542C72.4592 54.8469 72.3259 55.076 72.2321 55.3393C72.1382 55.6027 72.0913 55.8852 72.0913 56.1906C72.0913 56.4959 72.1382 56.7765 72.2321 57.0361C72.3259 57.2937 72.4573 57.5208 72.6299 57.7155C72.8026 57.9102 73.0109 58.061 73.2586 58.1717C73.5064 58.2824 73.7822 58.3358 74.09 58.3358C74.4278 58.3358 74.7112 58.2709 74.942 58.143C75.1747 58.0133 75.3643 57.8453 75.5144 57.6411L76.0868 58.0743C75.8635 58.3549 75.5876 58.5801 75.2611 58.7481C74.9345 58.916 74.5442 59 74.0881 59C73.6621 59 73.2755 58.9294 72.9321 58.7881C72.5887 58.6469 72.294 58.4503 72.0519 58.2003C71.8079 57.9484 71.6203 57.6525 71.4852 57.309C71.35 56.9674 71.2825 56.5933 71.2825 56.1906C71.2825 55.7879 71.35 55.4138 71.4852 55.0721C71.6203 54.7286 71.8079 54.4328 72.0519 54.1827C72.294 53.9308 72.5887 53.7361 72.9321 53.5949C73.2755 53.4537 73.6621 53.3849 74.0881 53.3849C74.4391 53.3849 74.7975 53.4632 75.1597 53.6178C75.5219 53.7743 75.8166 54.0052 76.0399 54.3087L75.445 54.742L75.4487 54.74Z" fill="white"/>
<path d="M83.1713 56.1906C83.1713 56.5933 83.1019 56.9674 82.963 57.309C82.8242 57.6525 82.6309 57.9484 82.385 58.2003C82.1392 58.4503 81.8426 58.6469 81.4992 58.7881C81.1558 58.9294 80.7767 59 80.3657 59C79.9547 59 79.5869 58.9294 79.2434 58.7881C78.9 58.6469 78.6035 58.4503 78.3576 58.2003C78.1099 57.9484 77.9185 57.6525 77.7796 57.309C77.6407 56.9674 77.5713 56.5933 77.5713 56.1906C77.5713 55.7879 77.6407 55.4138 77.7796 55.0721C77.9185 54.7305 78.1118 54.4328 78.3576 54.1827C78.6053 53.9308 78.9 53.7361 79.2434 53.5949C79.5869 53.4537 79.9622 53.3849 80.3657 53.3849C80.7692 53.3849 81.1558 53.4556 81.4992 53.5949C81.8426 53.7361 82.1392 53.9327 82.385 54.1827C82.6327 54.4347 82.8242 54.7305 82.963 55.0721C83.1019 55.4157 83.1713 55.7879 83.1713 56.1906ZM82.3625 56.1906C82.3625 55.8928 82.3156 55.6142 82.2217 55.3508C82.1279 55.0874 81.9947 54.8603 81.8239 54.6656C81.6512 54.4728 81.4429 54.3182 81.1952 54.2037C80.9493 54.0892 80.6716 54.032 80.3638 54.032C80.056 54.032 79.782 54.0892 79.5381 54.2037C79.2941 54.3182 79.0877 54.4728 78.915 54.6656C78.7423 54.8603 78.611 55.0874 78.5171 55.3508C78.4233 55.6142 78.3764 55.8928 78.3764 56.1906C78.3764 56.4883 78.4233 56.767 78.5171 57.0303C78.611 57.2918 78.7423 57.5208 78.915 57.7155C79.0877 57.9102 79.2941 58.061 79.5381 58.1717C79.7802 58.2824 80.056 58.3358 80.3638 58.3358C80.6716 58.3358 80.9475 58.2805 81.1952 58.1717C81.4429 58.061 81.6512 57.9083 81.8239 57.7155C81.9965 57.5208 82.1279 57.2937 82.2217 57.0303C82.3156 56.767 82.3625 56.4883 82.3625 56.1906Z" fill="white"/>
<path d="M85.4721 54.1369C85.4646 53.9079 85.4534 53.7037 85.4384 53.5205H86.1684C86.1834 53.6655 86.1947 53.8258 86.2022 53.9995C86.2097 54.1751 86.2134 54.3202 86.2134 54.4328H86.2359C86.3861 54.1217 86.6094 53.8678 86.9097 53.6732C87.2081 53.4785 87.5459 53.3831 87.9193 53.3831C88.0169 53.3831 88.1051 53.3869 88.184 53.3945C88.2628 53.4021 88.3435 53.4174 88.426 53.4403L88.3247 54.1828C88.2797 54.1675 88.2046 54.1522 88.0995 54.1369C87.9944 54.1217 87.8893 54.114 87.7842 54.114C87.5815 54.114 87.3882 54.1522 87.2006 54.2286C87.0129 54.3049 86.8496 54.4232 86.7126 54.5874C86.5738 54.7515 86.4612 54.9595 86.3748 55.2134C86.2885 55.4672 86.2453 55.7726 86.2453 56.1295V58.8626H85.4815V54.6962C85.4815 54.5511 85.4778 54.366 85.4703 54.1369H85.4721Z" fill="white"/>
<path d="M90.1864 54.1369C90.1789 53.9079 90.1676 53.7037 90.1526 53.5205H90.8826C90.8976 53.6655 90.9089 53.8258 90.9164 53.9995C90.9239 54.1751 90.9277 54.3202 90.9277 54.4328H90.9502C91.1003 54.1217 91.3236 53.8678 91.6239 53.6732C91.9223 53.4785 92.2601 53.3831 92.6336 53.3831C92.7312 53.3831 92.8194 53.3869 92.8982 53.3945C92.977 53.4021 93.0577 53.4174 93.1403 53.4403L93.0389 54.1828C92.9939 54.1675 92.9188 54.1522 92.8137 54.1369C92.7086 54.1217 92.6036 54.114 92.4985 54.114C92.2958 54.114 92.1025 54.1522 91.9148 54.2286C91.7271 54.3049 91.5639 54.4232 91.4269 54.5874C91.288 54.7515 91.1754 54.9595 91.0891 55.2134C91.0027 55.4672 90.9596 55.7726 90.9596 56.1295V58.8626H90.1957V54.6962C90.1957 54.5511 90.192 54.366 90.1845 54.1369H90.1864Z" fill="white"/>
<path d="M99.491 56.0302V56.202C99.491 56.2631 99.4873 56.328 99.4798 56.3967H95.124C95.1315 56.6639 95.184 56.9139 95.2816 57.1506C95.3792 57.3872 95.5124 57.5915 95.6851 57.7671C95.8577 57.9426 96.0586 58.082 96.2913 58.1831C96.5221 58.2862 96.7736 58.3377 97.0438 58.3377C97.4398 58.3377 97.7832 58.2442 98.0704 58.0591C98.3575 57.872 98.5771 57.6583 98.7272 57.414L99.2996 57.8701C98.9862 58.2728 98.639 58.5629 98.2618 58.7366C97.8846 58.9122 97.4773 59 97.0438 59C96.6553 59 96.2931 58.9294 95.961 58.7881C95.6288 58.6469 95.3417 58.4503 95.1033 58.2003C94.8631 57.9484 94.6754 57.6525 94.5366 57.309C94.3977 56.9674 94.3282 56.5933 94.3282 56.1906C94.3282 55.7879 94.3958 55.4138 94.5309 55.0721C94.666 54.7286 94.8518 54.4328 95.0921 54.1827C95.3323 53.9308 95.6119 53.7361 95.9347 53.5949C96.2556 53.4537 96.6047 53.3849 96.9781 53.3849C97.3891 53.3849 97.7532 53.4556 98.0666 53.5949C98.3819 53.7361 98.6428 53.927 98.853 54.1656C99.0631 54.406 99.2208 54.6847 99.3296 55.0053C99.4385 55.326 99.4929 55.6676 99.4929 56.0322L99.491 56.0302ZM98.716 55.7802C98.6934 55.2783 98.5339 54.8603 98.2393 54.5301C97.9446 54.198 97.5224 54.0339 96.9763 54.0339C96.7229 54.0339 96.4864 54.0816 96.2687 54.177C96.051 54.2724 95.8615 54.4003 95.6964 54.5645C95.5312 54.7286 95.4017 54.9137 95.3041 55.1237C95.2065 55.3336 95.1502 55.5512 95.1352 55.7802H98.716Z" fill="white"/>
<path d="M104.172 54.1713H102.689V57.288C102.689 57.4865 102.708 57.6506 102.745 57.7785C102.783 57.9083 102.837 58.0075 102.909 58.082C102.98 58.1545 103.064 58.2041 103.162 58.2309C103.26 58.2576 103.365 58.2709 103.477 58.2709C103.582 58.2709 103.693 58.2557 103.808 58.2251C103.924 58.1946 104.035 58.1526 104.14 58.0992L104.173 58.7729C104.038 58.8263 103.898 58.8664 103.753 58.8931C103.607 58.9199 103.449 58.9332 103.276 58.9332C103.134 58.9332 102.984 58.9141 102.828 58.876C102.67 58.8378 102.526 58.7653 102.391 58.6584C102.255 58.5515 102.145 58.4064 102.058 58.2251C101.972 58.0419 101.929 57.8033 101.929 57.5056V54.1732H100.84V53.5224H101.929V52.0165H102.693V53.5224H104.175V54.1732L104.172 54.1713Z" fill="white"/>
<path d="M111.254 56.1906C111.254 56.5933 111.185 56.9674 111.046 57.309C110.907 57.6525 110.714 57.9484 110.468 58.2003C110.222 58.4503 109.926 58.6469 109.582 58.7881C109.239 58.9294 108.86 59 108.449 59C108.038 59 107.67 58.9294 107.326 58.7881C106.983 58.6469 106.686 58.4503 106.441 58.2003C106.193 57.9484 106.001 57.6525 105.862 57.309C105.724 56.9674 105.654 56.5933 105.654 56.1906C105.654 55.7879 105.724 55.4138 105.862 55.0721C106.001 54.7286 106.195 54.4328 106.441 54.1827C106.688 53.9308 106.983 53.7361 107.326 53.5949C107.67 53.4537 108.045 53.3849 108.449 53.3849C108.852 53.3849 109.239 53.4556 109.582 53.5949C109.926 53.7361 110.222 53.9327 110.468 54.1827C110.716 54.4347 110.907 54.7305 111.046 55.0721C111.185 55.4157 111.254 55.7879 111.254 56.1906ZM110.445 56.1906C110.445 55.8928 110.398 55.6142 110.305 55.3508C110.211 55.0874 110.078 54.8603 109.907 54.6656C109.734 54.4728 109.526 54.3182 109.278 54.2037C109.032 54.0892 108.754 54.032 108.447 54.032C108.139 54.032 107.865 54.0892 107.621 54.2037C107.377 54.3182 107.171 54.4728 106.998 54.6656C106.825 54.8603 106.694 55.0874 106.6 55.3508C106.506 55.6142 106.459 55.8928 106.459 56.1906C106.459 56.4883 106.506 56.767 106.6 57.0303C106.694 57.2918 106.825 57.5208 106.998 57.7155C107.171 57.9102 107.377 58.061 107.621 58.1717C107.863 58.2824 108.139 58.3358 108.447 58.3358C108.754 58.3358 109.03 58.2805 109.278 58.1717C109.526 58.061 109.734 57.9083 109.907 57.7155C110.079 57.5208 110.211 57.2937 110.305 57.0303C110.398 56.767 110.445 56.4883 110.445 56.1906Z" fill="white"/>
<path d="M113.555 54.1369C113.548 53.9079 113.536 53.7037 113.521 53.5205H114.251C114.266 53.6655 114.278 53.8258 114.285 53.9995C114.293 54.1751 114.296 54.3202 114.296 54.4328H114.319C114.469 54.1217 114.692 53.8678 114.993 53.6732C115.291 53.4785 115.629 53.3831 116.002 53.3831C116.1 53.3831 116.188 53.3869 116.267 53.3945C116.346 53.4021 116.426 53.4174 116.509 53.4403L116.408 54.1828C116.363 54.1675 116.287 54.1522 116.182 54.1369C116.077 54.1217 115.972 54.114 115.867 54.114C115.664 54.114 115.471 54.1522 115.283 54.2286C115.096 54.3049 114.933 54.4232 114.796 54.5874C114.657 54.7515 114.544 54.9595 114.458 55.2134C114.371 55.4672 114.328 55.7726 114.328 56.1295V58.8626H113.564V54.6962C113.564 54.5511 113.561 54.366 113.553 54.1369H113.555Z" fill="white"/>
<path d="M121.458 55.4042C121.458 54.9443 121.338 54.6007 121.099 54.3736C120.859 54.1465 120.512 54.0339 120.056 54.0339C119.741 54.0339 119.45 54.0911 119.179 54.2056C118.909 54.3202 118.682 54.4728 118.494 54.6618L118.068 54.1484C118.286 53.927 118.571 53.7457 118.926 53.6006C119.283 53.4556 119.684 53.3849 120.133 53.3849C120.416 53.3849 120.683 53.425 120.93 53.5052C121.178 53.5854 121.394 53.7056 121.582 53.864C121.769 54.0243 121.914 54.2266 122.019 54.469C122.124 54.7133 122.177 54.9977 122.177 55.326V57.6659C122.177 57.872 122.184 58.0839 122.199 58.3053C122.214 58.5267 122.237 58.7137 122.267 58.8645H121.582C121.559 58.7347 121.54 58.5954 121.525 58.4427C121.51 58.29 121.503 58.143 121.503 57.998H121.48C121.24 58.3549 120.97 58.6126 120.666 58.7691C120.362 58.9256 119.998 59.0038 119.572 59.0038C119.369 59.0038 119.163 58.9752 118.949 58.9179C118.737 58.8607 118.541 58.7672 118.365 58.6374C118.189 58.5076 118.042 58.3396 117.928 58.1335C117.811 57.9274 117.753 57.6754 117.753 57.3777C117.753 56.9655 117.856 56.6391 118.063 56.3986C118.269 56.1581 118.543 55.9787 118.889 55.8604C119.232 55.742 119.628 55.6657 120.073 55.6314C120.518 55.597 120.979 55.5798 121.458 55.5798V55.41V55.4042ZM121.234 56.1906C120.919 56.1906 120.604 56.2039 120.285 56.2306C119.968 56.2574 119.679 56.3108 119.422 56.391C119.164 56.4711 118.952 56.5876 118.787 56.7402C118.622 56.8929 118.54 57.0933 118.54 57.3453C118.54 57.5361 118.575 57.6964 118.646 57.8243C118.718 57.9541 118.814 58.0591 118.932 58.1392C119.052 58.2194 119.185 58.2766 119.33 58.3091C119.476 58.3434 119.622 58.3606 119.772 58.3606C120.043 58.3606 120.281 58.3129 120.491 58.2175C120.701 58.1221 120.876 57.9923 121.019 57.83C121.161 57.6659 121.27 57.4789 121.343 57.2651C121.418 57.0513 121.456 56.828 121.456 56.5914V56.1925H121.233L121.234 56.1906Z" fill="white"/>
<path d="M132.615 57.9598C132.391 58.3015 132.099 58.561 131.74 58.7366C131.382 58.9122 131.01 59 130.629 59C130.218 59 129.845 58.9275 129.513 58.7824C129.18 58.6374 128.895 58.4389 128.66 58.1889C128.424 57.9369 128.242 57.6411 128.111 57.2975C127.979 56.9559 127.914 56.5856 127.914 56.1906C127.914 55.7955 127.979 55.4252 128.111 55.0836C128.242 54.74 128.426 54.4442 128.66 54.1942C128.897 53.9423 129.18 53.7457 129.513 53.6006C129.845 53.4556 130.218 53.385 130.629 53.385C131.01 53.385 131.382 53.4747 131.74 53.6522C132.099 53.8316 132.391 54.0969 132.615 54.4461H132.637V50.2339H133.401V58.8645H132.637V57.9636H132.615V57.9598ZM128.721 56.1906C128.721 56.4883 128.766 56.767 128.856 57.0303C128.946 57.2918 129.073 57.5208 129.242 57.7155C129.411 57.9102 129.618 58.061 129.865 58.1717C130.113 58.2824 130.393 58.3358 130.708 58.3358C131.001 58.3358 131.269 58.2805 131.517 58.1717C131.765 58.061 131.977 57.9102 132.157 57.7213C132.337 57.5304 132.478 57.3052 132.577 57.0418C132.678 56.7784 132.729 56.4959 132.729 56.1906C132.729 55.8852 132.678 55.6027 132.577 55.3393C132.476 55.076 132.335 54.8488 132.157 54.6542C131.977 54.4595 131.765 54.3087 131.517 54.198C131.271 54.0873 131.001 54.032 130.708 54.032C130.393 54.032 130.113 54.0892 129.865 54.2037C129.618 54.3183 129.411 54.4728 129.242 54.6656C129.073 54.8603 128.946 55.0874 128.856 55.3508C128.766 55.6142 128.721 55.8928 128.721 56.1906Z" fill="white"/>
<path d="M140.898 56.0302V56.202C140.898 56.2631 140.895 56.328 140.887 56.3967H136.531C136.539 56.6639 136.591 56.9139 136.689 57.1506C136.787 57.3872 136.92 57.5915 137.092 57.7671C137.265 57.9426 137.466 58.082 137.699 58.1831C137.929 58.2862 138.181 58.3377 138.451 58.3377C138.847 58.3377 139.191 58.2442 139.478 58.0591C139.765 57.8739 139.984 57.6583 140.135 57.414L140.707 57.8701C140.394 58.2728 140.046 58.5629 139.669 58.7366C139.292 58.9122 138.885 59 138.451 59C138.063 59 137.7 58.9294 137.368 58.7881C137.036 58.6469 136.749 58.4503 136.511 58.2003C136.27 57.9484 136.083 57.6525 135.944 57.309C135.805 56.9674 135.736 56.5933 135.736 56.1906C135.736 55.7879 135.803 55.4138 135.938 55.0721C136.073 54.7286 136.259 54.4328 136.499 54.1827C136.74 53.9308 137.019 53.7361 137.342 53.5949C137.663 53.4537 138.012 53.3849 138.385 53.3849C138.796 53.3849 139.161 53.4556 139.474 53.5949C139.789 53.7361 140.05 53.927 140.26 54.1656C140.47 54.406 140.628 54.6847 140.737 55.0053C140.846 55.326 140.9 55.6676 140.9 56.0322L140.898 56.0302ZM140.123 55.7802C140.101 55.2783 139.941 54.8603 139.647 54.5301C139.352 54.198 138.93 54.0339 138.384 54.0339C138.13 54.0339 137.894 54.0816 137.676 54.177C137.458 54.2724 137.269 54.4003 137.104 54.5645C136.939 54.7286 136.809 54.9137 136.711 55.1237C136.614 55.3336 136.558 55.5512 136.543 55.7802H140.123Z" fill="white"/>
<path d="M147.623 51.4649C147.623 51.6252 147.566 51.7569 147.454 51.8581C147.341 51.9611 147.219 52.0127 147.084 52.0127C146.949 52.0127 146.825 51.9611 146.714 51.8581C146.602 51.755 146.545 51.6233 146.545 51.4649C146.545 51.3065 146.602 51.1729 146.714 51.0717C146.827 50.9687 146.951 50.9171 147.084 50.9171C147.217 50.9171 147.343 50.9687 147.454 51.0717C147.566 51.1748 147.623 51.3065 147.623 51.4649ZM147.465 58.8626H146.701V53.5205H147.465V58.8626Z" fill="white"/>
<path d="M151.613 53.6732C151.922 53.4785 152.269 53.3831 152.65 53.3831C152.793 53.3831 152.939 53.3983 153.093 53.4289C153.247 53.4594 153.395 53.5186 153.542 53.6044C153.688 53.6922 153.823 53.8087 153.945 53.9537C154.069 54.0988 154.176 54.2858 154.266 54.5129C154.446 54.1484 154.69 53.8678 155.002 53.6732C155.311 53.4785 155.681 53.3831 156.107 53.3831C156.773 53.3831 157.273 53.5854 157.607 53.9881C157.939 54.3908 158.106 54.9233 158.106 55.5856V58.8626H157.342V55.9062C157.342 55.3432 157.239 54.8908 157.032 54.5473C156.826 54.2037 156.477 54.0339 155.983 54.0339C155.707 54.0339 155.473 54.0911 155.281 54.2057C155.09 54.3202 154.936 54.469 154.822 54.6561C154.705 54.8431 154.621 55.0531 154.568 55.2897C154.516 55.5264 154.49 55.7688 154.49 56.0207V58.8626H153.726V55.7459C153.726 55.4863 153.707 55.2516 153.669 55.0378C153.632 54.824 153.566 54.6446 153.472 54.4958C153.379 54.3469 153.249 54.2324 153.086 54.1522C152.921 54.0721 152.71 54.032 152.457 54.032C152.277 54.032 152.097 54.074 151.913 54.1579C151.729 54.2419 151.566 54.3698 151.419 54.5397C151.273 54.7095 151.155 54.9271 151.066 55.1905C150.976 55.4539 150.931 55.7631 150.931 56.12V58.8607H150.167V54.6943C150.167 54.5492 150.164 54.3641 150.156 54.135C150.149 53.906 150.137 53.7018 150.122 53.5186H150.852C150.867 53.6636 150.879 53.8239 150.886 53.9976C150.894 54.1732 150.898 54.3183 150.898 54.4309H150.92C151.07 54.1198 151.299 53.8659 151.611 53.6712L151.613 53.6732Z" fill="white"/>
<path d="M165.975 56.1906C165.975 56.5933 165.905 56.9673 165.766 57.309C165.628 57.6525 165.434 57.9484 165.188 58.2003C164.943 58.4503 164.646 58.6469 164.303 58.7881C163.959 58.9294 163.58 59 163.169 59C162.758 59 162.39 58.9294 162.047 58.7881C161.703 58.6469 161.407 58.4503 161.161 58.2003C160.913 57.9484 160.722 57.6525 160.583 57.309C160.444 56.9673 160.375 56.5933 160.375 56.1906C160.375 55.7878 160.444 55.4138 160.583 55.0721C160.722 54.7286 160.915 54.4328 161.161 54.1827C161.409 53.9308 161.703 53.7361 162.047 53.5949C162.39 53.4536 162.766 53.3849 163.169 53.3849C163.573 53.3849 163.959 53.4556 164.303 53.5949C164.646 53.7361 164.943 53.9327 165.188 54.1827C165.436 54.4347 165.628 54.7305 165.766 55.0721C165.905 55.4157 165.975 55.7878 165.975 56.1906ZM165.166 56.1906C165.166 55.8928 165.119 55.6142 165.025 55.3508C164.931 55.0874 164.798 54.8603 164.627 54.6656C164.455 54.4728 164.246 54.3182 163.999 54.2037C163.753 54.0892 163.475 54.0319 163.167 54.0319C162.859 54.0319 162.585 54.0892 162.342 54.2037C162.098 54.3182 161.891 54.4728 161.718 54.6656C161.546 54.8603 161.414 55.0874 161.321 55.3508C161.227 55.6142 161.18 55.8928 161.18 56.1906C161.18 56.4883 161.227 56.7669 161.321 57.0303C161.414 57.2918 161.546 57.5208 161.718 57.7155C161.891 57.9102 162.098 58.061 162.342 58.1717C162.584 58.2824 162.859 58.3358 163.167 58.3358C163.475 58.3358 163.751 58.2805 163.999 58.1717C164.246 58.061 164.455 57.9083 164.627 57.7155C164.8 57.5208 164.931 57.2937 165.025 57.0303C165.119 56.7669 165.166 56.4883 165.166 56.1906ZM163.37 52.423H162.707L163.83 50.7797H164.851L163.368 52.423H163.37Z" fill="white"/>
<path d="M170.441 58.8626H169.599L167.456 53.5205H168.308L170.014 58.0419H170.036L171.753 53.5205H172.573L170.44 58.8626H170.441Z" fill="white"/>
<path d="M179.221 56.0302V56.202C179.221 56.2631 179.217 56.328 179.209 56.3967H174.853C174.861 56.6639 174.914 56.9139 175.011 57.1506C175.109 57.3872 175.242 57.5915 175.415 57.7671C175.587 57.9426 175.788 58.082 176.021 58.1831C176.252 58.2862 176.503 58.3377 176.773 58.3377C177.169 58.3377 177.513 58.2442 177.8 58.0591C178.087 57.872 178.307 57.6583 178.457 57.414L179.029 57.8701C178.716 58.2728 178.369 58.5629 177.991 58.7366C177.614 58.9122 177.207 59 176.773 59C176.385 59 176.023 58.9294 175.69 58.7881C175.358 58.6469 175.071 58.4503 174.833 58.2003C174.593 57.9484 174.405 57.6525 174.266 57.309C174.127 56.9674 174.058 56.5933 174.058 56.1906C174.058 55.7879 174.125 55.4138 174.26 55.0721C174.396 54.7286 174.581 54.4328 174.822 54.1827C175.062 53.9308 175.341 53.7361 175.664 53.5949C175.985 53.4537 176.334 53.3849 176.708 53.3849C177.119 53.3849 177.483 53.4556 177.796 53.5949C178.111 53.7361 178.372 53.927 178.582 54.1656C178.793 54.406 178.95 54.6847 179.059 55.0053C179.168 55.326 179.222 55.6676 179.222 56.0322L179.221 56.0302ZM178.445 55.7802C178.423 55.2783 178.263 54.8603 177.969 54.5301C177.674 54.198 177.252 54.0339 176.706 54.0339C176.452 54.0339 176.216 54.0816 175.998 54.177C175.781 54.2724 175.591 54.4003 175.426 54.5645C175.261 54.7286 175.131 54.9137 175.034 55.1237C174.936 55.3336 174.88 55.5512 174.865 55.7802H178.445Z" fill="white"/>
<path d="M182.463 51.4649C182.463 51.6252 182.407 51.7569 182.295 51.8581C182.182 51.9611 182.06 52.0127 181.925 52.0127C181.79 52.0127 181.666 51.9611 181.555 51.8581C181.443 51.755 181.386 51.6233 181.386 51.4649C181.386 51.3065 181.443 51.1729 181.555 51.0717C181.668 50.9687 181.792 50.9171 181.925 50.9171C182.058 50.9171 182.184 50.9687 182.295 51.0717C182.407 51.1748 182.463 51.3065 182.463 51.4649ZM182.306 58.8626H181.542V53.5205H182.306V58.8626Z" fill="white"/>
<path d="M187.806 54.7859C187.694 54.5645 187.523 54.3851 187.296 54.2438C187.067 54.1026 186.808 54.032 186.515 54.032C186.38 54.032 186.245 54.0472 186.112 54.0778C185.977 54.1083 185.858 54.1579 185.753 54.2267C185.648 54.2954 185.564 54.3832 185.5 54.49C185.436 54.5969 185.404 54.7229 185.404 54.866C185.404 55.118 185.506 55.3107 185.708 55.4424C185.909 55.576 186.228 55.6886 186.662 55.7802C187.283 55.91 187.741 56.0971 188.037 56.3452C188.332 56.5933 188.48 56.9254 188.48 57.3434C188.48 57.6487 188.422 57.9045 188.306 58.1144C188.189 58.3244 188.037 58.4942 187.851 58.6278C187.664 58.7614 187.454 58.8569 187.217 58.9141C186.981 58.9714 186.744 59 186.504 59C186.108 59 185.721 58.916 185.348 58.7481C184.974 58.5801 184.667 58.3187 184.428 57.9598L185.035 57.5037C185.17 57.7404 185.367 57.9369 185.629 58.0973C185.892 58.2576 186.179 58.3358 186.493 58.3358C186.658 58.3358 186.814 58.3206 186.964 58.29C187.114 58.2595 187.245 58.206 187.356 58.1297C187.469 58.0534 187.559 57.956 187.626 57.8377C187.694 57.7194 187.728 57.5743 187.728 57.3987C187.728 57.1182 187.594 56.9063 187.33 56.7651C187.065 56.6238 186.68 56.4921 186.179 56.3719C186.022 56.3337 185.857 56.286 185.68 56.2288C185.504 56.1715 185.34 56.0875 185.192 55.9768C185.042 55.8661 184.918 55.7268 184.822 55.5608C184.725 55.3928 184.676 55.1848 184.676 54.9328C184.676 54.658 184.729 54.4251 184.834 54.2305C184.939 54.0358 185.08 53.8774 185.254 53.7514C185.431 53.6255 185.629 53.5319 185.855 53.4709C186.08 53.4098 186.311 53.3792 186.551 53.3792C186.917 53.3792 187.273 53.4632 187.617 53.6293C187.96 53.7972 188.219 54.0339 188.392 54.3374L187.808 54.7821L187.806 54.7859Z" fill="white"/>
<path d="M76.085 33.9098C76.085 35.9157 76.9726 36.9196 78.748 36.9196C80.5234 36.9196 81.411 35.8279 81.411 33.6426V30.8999C81.411 29.2509 80.8405 28.0695 79.7014 27.3557L73.9136 23.8115C72.204 22.7408 71.3482 20.9352 71.3482 18.393V13.7112C71.3482 11.7492 71.9731 10.1556 73.223 8.92834C74.4729 7.70303 76.3139 7.08847 78.748 7.08847C81.1821 7.08847 83.0325 7.60188 84.3049 8.62679C85.5754 9.65361 86.2116 11.0583 86.2116 12.8409V17.0551C86.2116 17.8128 85.6861 18.3262 84.6333 18.5934C84.1078 18.7728 83.5486 18.8606 82.9556 18.8606C82.3625 18.8606 81.7826 18.7938 81.2121 18.6602C81.3435 17.6792 81.4092 16.6314 81.4092 15.5168V14.5129C81.4092 12.4172 80.5759 11.3694 78.9094 11.3694C77.1547 11.3694 76.2783 12.3065 76.2783 14.1789V17.2555C76.2783 18.8167 76.7606 19.8645 77.7252 20.3989L83.5129 23.8096C85.3971 24.8803 86.3411 26.7087 86.3411 29.2948V34.3106C86.3411 36.4501 85.7162 38.1335 84.4663 39.3607C83.2164 40.586 81.3848 41.2006 78.9751 41.2006C76.5654 41.2006 74.6775 40.7101 73.3187 39.729C71.9581 38.748 71.2806 37.3433 71.2806 35.5149V31.1003C71.2806 30.3426 71.808 29.8292 72.8589 29.562C73.3863 29.3845 73.9437 29.2948 74.5367 29.2948C75.1297 29.2948 75.7096 29.3616 76.2802 29.4952C76.1488 30.4762 76.0831 31.524 76.0831 32.6387V33.9098H76.085Z" fill="white"/>
<path d="M98.7723 7.09039C103.682 7.09039 106.138 9.29862 106.138 13.7113V34.9805C106.138 35.9176 106.304 36.5856 106.632 36.9864C106.96 37.3872 107.585 37.5895 108.507 37.5895C108.55 38.75 108.253 39.6413 107.619 40.2654C106.983 40.8895 106.075 41.2006 104.89 41.2006C103.049 41.2006 101.931 40.5097 101.537 39.1278C100.178 40.5097 98.5772 41.2006 96.7361 41.2006C94.8951 41.2006 93.4256 40.4887 92.3297 39.0611C91.2337 37.6353 90.6857 35.7172 90.6857 33.3086C90.6857 29.6537 92.1983 26.8881 95.2235 25.0158L101.208 21.4048V14.1808C101.208 12.3085 100.341 11.3713 98.611 11.3713C96.8806 11.3713 96.0136 12.4192 96.0136 14.5148V16.723L96.2107 19.8664C95.6401 20 95.0602 20.0668 94.4672 20.0668C93.8742 20.0668 93.3168 19.979 92.7894 19.7996C91.7366 19.5324 91.2111 19.019 91.2111 18.2613V12.7761C91.2111 10.9934 91.9018 9.60018 93.283 8.59626C94.6643 7.59235 96.494 7.0923 98.7742 7.0923L98.7723 7.09039ZM98.0479 28.2928C96.601 29.2738 95.8785 30.9133 95.8785 33.2093C95.8785 35.5054 96.5691 36.6543 97.9504 36.6543C99.3316 36.6543 100.416 35.8527 101.206 34.2457V26.1533L98.0498 28.2928H98.0479Z" fill="white"/>
<path d="M117.911 35.0473C117.911 37.2326 118.063 39.061 118.371 40.5326C117.055 40.7101 115.631 40.7998 114.096 40.7998C113.35 40.7998 112.977 40.4658 112.977 39.7958V13.3085C112.977 12.3733 112.812 11.7034 112.483 11.3026C112.155 10.9018 111.53 10.7014 110.609 10.7014C110.565 9.54291 110.86 8.6516 111.496 8.02558C112.131 7.40148 113.152 7.08847 114.553 7.08847C115.955 7.08847 116.965 7.77938 117.579 9.16119C119.026 7.77938 120.593 7.08847 122.282 7.08847C123.971 7.08847 125.329 7.64578 126.36 8.76039C127.39 9.875 127.904 11.4591 127.904 13.5089V34.9786C127.904 35.9157 128.069 36.5837 128.398 36.9845C128.726 37.3853 129.351 37.5876 130.273 37.5876C130.316 38.748 130.019 39.6393 129.385 40.2634C128.749 40.8876 127.816 41.1987 126.591 41.1987C125.365 41.1987 124.453 40.8188 123.862 40.0611C123.271 39.3034 122.974 38.0552 122.974 36.3146V13.9097C122.974 12.4382 122.229 11.7015 120.739 11.7015C119.512 11.7015 118.568 12.3924 117.911 13.7742V35.0435V35.0473Z" fill="white"/>
<path d="M147.504 39.6947C146.101 40.6986 144.314 41.1987 142.145 41.1987C139.975 41.1987 138.243 40.6299 136.95 39.4924C135.655 38.3549 135.009 36.828 135.009 34.9118V11.7721L132.971 12.1061C132.664 10.9476 132.512 9.93226 132.512 9.06195C132.512 8.19163 132.797 7.75839 133.367 7.75839H135.143L136.064 1.47152C136.239 0.490506 137.051 0 138.498 0C138.936 0 139.418 0.0438974 139.945 0.133601V7.75839H145.667L149.087 7.42439C149.304 8.5848 149.415 9.59826 149.415 10.4667C149.415 11.3351 149.13 11.7702 148.559 11.7702H139.943V34.1083C139.943 35.0454 140.174 35.7706 140.634 36.2821C141.094 36.7956 141.675 37.0513 142.377 37.0513C143.999 37.0513 144.81 35.9596 144.81 33.7743V28.8921L144.613 25.7487C145.181 25.6151 145.763 25.5483 146.356 25.5483C146.949 25.5483 147.506 25.638 148.034 25.8155C149.087 26.0827 149.612 26.5961 149.612 27.3538V35.3794C149.612 37.2517 148.91 38.6908 147.506 39.6928L147.504 39.6947Z" fill="white"/>
<path d="M153.949 34.3774V14.1789C153.949 11.9496 154.628 10.2109 155.987 8.96271C157.346 7.7145 159.187 7.09039 161.512 7.09039C163.837 7.09039 165.645 7.6706 166.938 8.82911C168.231 9.98953 168.878 11.6844 168.878 13.9117V34.1102C168.878 36.3413 168.187 38.08 166.806 39.3263C165.425 40.5746 163.573 41.1987 161.249 41.1987C158.926 41.1987 157.128 40.6185 155.856 39.4599C154.583 38.3014 153.949 36.6066 153.949 34.3774ZM158.881 13.9117V34.3774C158.881 35.1351 159.121 35.7707 159.605 36.2841C160.088 36.7975 160.69 37.0532 161.414 37.0532C162.139 37.0532 162.739 36.7975 163.224 36.2841C163.706 35.7726 163.948 35.137 163.948 34.3774V13.9117C163.948 13.154 163.706 12.5184 163.224 12.005C162.741 11.4935 162.139 11.2358 161.414 11.2358C160.69 11.2358 160.088 11.4935 159.605 12.005C159.123 12.5184 158.881 13.154 158.881 13.9117Z" fill="white"/>
<path d="M178.742 33.9098C178.742 35.9157 179.63 36.9196 181.405 36.9196C183.18 36.9196 184.068 35.8279 184.068 33.6426V30.8999C184.068 29.2509 183.498 28.0695 182.358 27.3557L176.571 23.8115C174.861 22.7408 174.005 20.9352 174.005 18.393V13.7112C174.005 11.7492 174.63 10.1556 175.88 8.92834C177.13 7.70303 178.971 7.08847 181.405 7.08847C183.839 7.08847 185.69 7.60188 186.962 8.62679C188.233 9.65361 188.869 11.0583 188.869 12.8409V17.0551C188.869 17.8128 188.343 18.3262 187.29 18.5934C186.765 18.7728 186.206 18.8606 185.613 18.8606C185.02 18.8606 184.44 18.7938 183.869 18.6602C184.001 17.6792 184.066 16.6314 184.066 15.5168V14.5129C184.066 12.4172 183.233 11.3694 181.566 11.3694C179.812 11.3694 178.935 12.3065 178.935 14.1789V17.2555C178.935 18.8167 179.418 19.8645 180.382 20.3989L186.17 23.8096C188.054 24.8803 188.998 26.7087 188.998 29.2948V34.3106C188.998 36.4501 188.373 38.1335 187.123 39.3607C185.874 40.586 184.042 41.2006 181.632 41.2006C179.223 41.2006 177.335 40.7101 175.976 39.729C174.615 38.748 173.938 37.3433 173.938 35.5149V31.1003C173.938 30.3426 174.465 29.8292 175.516 29.562C176.043 29.3845 176.601 29.2948 177.194 29.2948C177.787 29.2948 178.367 29.3616 178.937 29.4952C178.806 30.4762 178.74 31.524 178.74 32.6387V33.9098H178.742Z" fill="white"/>
<path d="M56.8188 35.7287L30.7102 18.0399C30.2129 17.704 29.6423 17.5341 29.0699 17.5341V24.1607L52.219 39.8436V50.2988L30.7102 35.7287C30.2129 35.3908 29.6405 35.2229 29.0699 35.2229V41.8495L53.5383 58.4255C54.4466 59.0401 55.6158 59.0973 56.5767 58.5744C57.5394 58.0495 58.1399 57.0303 58.1399 55.9215V38.2346C58.1399 37.2288 57.6445 36.2879 56.8206 35.7306L56.8188 35.7287Z" fill="white"/>
<path d="M29.0681 6.61705L53.5458 23.0557C54.9102 23.9718 56.7456 23.5901 57.6464 22.2025C58.5472 20.815 58.1719 18.9484 56.8075 18.0323L30.699 0.49814C30.2054 0.166047 29.6368 0 29.0681 0V6.61705Z" fill="white"/>
<path d="M27.4373 0.49814L1.3287 18.0342C0.499201 18.5915 0 19.5343 0 20.5459V38.2346C0 39.3435 0.600542 40.3646 1.56329 40.8876C2.52603 41.4105 3.69333 41.3552 4.60165 40.7387L29.07 24.1626V17.5361C28.4976 17.5361 27.9252 17.704 27.4298 18.0418L5.91909 32.6119V22.1644L29.0681 6.61705V0C28.4995 0 27.9308 0.166047 27.4373 0.49814Z" fill="white"/>
<path d="M27.4279 35.7287L1.3193 53.4155C-0.0412983 54.3373 -0.40913 56.2059 0.497313 57.5896C1.06783 58.4599 2.00618 58.9313 2.96329 58.9313C3.5263 58.9313 4.09681 58.7672 4.60164 58.4255L29.07 41.8495V35.2229C28.4976 35.2229 27.9252 35.3909 27.4298 35.7287H27.4279Z" fill="white"/>
</g>
<defs>
<clipPath id="clip0_35_842">
<rect width="189" height="59" fill="white"/>
</clipPath>
</defs>
</svg>
