<svg width="20" height="28" viewBox="0 0 20 28" fill="none" xmlns="http://www.w3.org/2000/svg">
<g clip-path="url(#clip0_6_230)">
<path d="M9.70841 0.740601C14.6536 0.796554 18.5071 4.27944 19.2619 8.8857C19.5893 10.8854 19.197 12.793 18.5217 14.6601C17.5489 17.3528 16.1145 19.8001 14.5305 22.163C13.4209 23.8193 12.2259 25.4126 10.9659 26.9561C10.2777 27.7988 9.31775 27.8083 8.62791 26.9613C6.07967 23.8322 3.75027 20.5542 1.99018 16.8991C1.18835 15.2317 0.534408 13.51 0.291637 11.6584C-0.0537129 9.02688 0.584843 6.64326 2.17738 4.54544C3.83147 2.36325 6.05573 1.1426 8.75784 0.806023C9.0955 0.763843 9.43743 0.758678 9.70841 0.740601ZM6.41391 10.4016C6.41391 12.2825 7.92267 13.8079 9.78534 13.8088C11.6489 13.8088 13.1619 12.2834 13.1602 10.4051C13.1585 8.5431 11.6514 7.01944 9.805 7.01428C7.93721 7.00911 6.41391 8.53019 6.41391 10.4008V10.4016Z" fill="#388936"/>
</g>
<defs>
<clipPath id="clip0_6_230">
<rect width="19.1797" height="26.8516" fill="white" transform="translate(0.199951 0.740601)"/>
</clipPath>
</defs>
</svg>
